<svg width="79" height="73" viewBox="0 0 79 73" fill="none" xmlns="http://www.w3.org/2000/svg">
<path d="M39.8749 6.05228L40.0088 6.6487C33.083 19.0302 29.3329 29.5958 28.7585 38.3454C26.8776 45.5174 25.5872 49.182 24.8874 49.3392C24.0763 49.5213 23.5368 49.016 23.2689 47.8232C22.5687 44.7059 22.6637 36.6486 23.5538 23.6513L22.9574 23.7853C19.7611 33.3577 15.2629 43.4564 9.46289 54.0814L8.86647 54.2154L8.73251 53.619C15.0864 40.848 20.2889 28.2689 24.3399 15.8815L25.6905 16.2047C24.5339 22.3619 24.1489 31.9546 24.5355 44.9826C26.0539 41.7011 27.8113 35.3923 29.8076 26.0559C31.7736 19.7837 35.1294 13.1158 39.8749 6.05228ZM37.7626 31.7372C40.0846 31.2157 42.3077 32.2618 44.4317 34.8755C43.3934 41.7079 40.1147 45.7438 34.5959 46.9833L33.3315 47.2673C32.3772 47.4816 31.5132 46.573 30.7395 44.5415C30.7749 37.4833 32.5341 33.563 36.0172 32.7808C35.9243 32.3673 36.5061 32.0194 37.7626 31.7372ZM34.5558 35.0887L37.0084 37.1943C34.6848 38.6016 33.6159 39.7188 33.8016 40.5458L33.9463 41.1899L36.3936 43.2716L35.153 43.5502L32.9605 42.7145L32.6242 44.1182L32.7689 44.7623C32.9546 45.5894 33.6757 45.8618 34.9322 45.5796C38.3517 44.8116 40.9828 41.7982 42.8256 36.5394C41.8134 34.5614 40.9494 33.6528 40.2337 33.8135L34.5558 35.0887ZM60.0557 21.3675L60.3397 22.6319L49.7812 43.5728C48.9383 43.7621 48.4221 43.4353 48.2328 42.5924L46.6736 35.6501C46.5772 35.2206 46.4163 34.8391 46.191 34.5055L46.2504 33.7654L45.5377 30.5924C45.4757 29.7209 45.8025 29.2048 46.5182 29.044C47.3933 28.9979 47.9094 29.3247 48.0666 30.0245L48.2112 30.6686L48.3194 31.5966L48.4952 31.933C48.0723 32.5793 48.3117 35.6163 49.2133 41.044L60.0557 21.3675ZM64.9364 25.6342C67.2585 25.1127 69.4815 26.1588 71.6056 28.7725C70.5672 35.6049 67.2886 39.6408 61.7697 40.8803L60.5053 41.1643C59.551 41.3786 58.6871 40.47 57.9134 38.4385C57.9487 31.3803 59.7079 27.4601 63.191 26.6778C63.0982 26.2643 63.68 25.9164 64.9364 25.6342ZM61.7296 28.9858L64.1823 31.0913C61.8587 32.4986 60.7897 33.6158 60.9755 34.4428L61.1202 35.087L63.5674 37.1686L62.3269 37.4473L60.1344 36.6115L59.7981 38.0152L59.9427 38.6593C60.1285 39.4864 60.8496 39.7588 62.106 39.4766C65.5255 38.7086 68.1567 35.6952 69.9995 30.4364C68.9872 28.4584 68.1233 27.5498 67.4076 27.7105L61.7296 28.9858ZM37.1679 41.2249L39.0048 40.8123C35.4208 51.7081 32.4764 59.687 30.1717 64.7489L29.5514 64.8882C28.5335 65.1168 27.7372 64.4352 27.1625 62.8435C25.1581 65.4488 23.9571 66.7962 23.5595 66.8855L22.6606 65.7842C22.4243 59.0042 22.1633 54.978 21.8775 53.7057L21.5989 52.4651L22.8394 52.1865C23.6791 52.1316 24.1776 52.454 24.3347 53.1538C23.8253 58.5475 23.7421 62.0078 24.085 63.5347L26.6106 60.3862C27.549 60.1755 28.3917 61.0638 29.1388 63.0512C31.3917 58.5022 34.068 51.2268 37.1679 41.2249ZM44.2538 47.2768C46.3251 47.6469 47.5446 48.2418 47.9124 49.0614C46.6005 52.9647 44.2693 56.0861 40.9188 58.4258C40.2005 59.0215 39.6267 59.3675 39.1972 59.464L38.2983 58.3627C42.7312 54.5938 45.1553 51.8859 45.5706 50.2389L45.4313 49.6186C39.4909 52.1055 36.9529 55.2734 37.8174 59.1223L38.096 60.3629C38.3746 61.6034 39.3409 62.038 40.995 61.6665L52.8195 56.4046L53.4397 56.2652L53.5791 56.8855C47.5226 60.4176 43.8343 62.3319 42.5142 62.6284L41.8939 62.7677C39.4446 63.3178 37.5119 62.4487 36.0958 60.1605C35.1528 55.9617 37.8722 51.6672 44.2538 47.2768ZM66.4536 22.5435L67.0739 22.4042C67.7347 25.3466 65.9907 37.1824 61.8418 57.9117L62.2651 59.7964L63.5295 59.5124L63.6688 60.1327C63.8581 60.9756 63.5313 61.4918 62.6884 61.6811L60.8037 62.1044L60.6644 61.4841C60.3108 59.9095 60.3746 57.2555 60.8559 53.5221C58.9223 56.1449 57.0648 57.6564 55.2835 58.0565C54.8541 58.1529 53.8236 57.5072 52.1921 56.1194L52.5522 54.7104L52.4129 54.0901L50.7252 52.4894L50.5806 51.8452C49.8305 48.5053 51.6669 45.8959 56.0899 44.0171L57.9746 43.5938C59.7767 43.8072 60.9885 45.2976 61.6101 48.065L62.2542 47.9203L65.9488 23.3085C65.8559 22.8949 66.0242 22.64 66.4536 22.5435ZM52.042 49.5373L52.1866 50.1814L52.8069 50.0421C52.5247 48.7856 52.8051 48.0627 53.648 47.8734L56.9365 47.7865L57.0758 48.4067C54.7537 48.9282 53.7076 51.1513 53.9375 55.0759C54.5491 55.7906 54.9049 56.3706 55.0049 56.8159C59.1671 53.776 60.9071 50.7372 60.2249 47.6995C59.2136 46.1724 58.3899 45.4803 57.7537 45.6231L55.869 46.0464C53.6265 46.5501 52.3508 47.7137 52.042 49.5373Z" fill="black" fill-opacity="0.9"/>
</svg>
