<svg width="88" height="577" viewBox="0 0 88 577" fill="none" xmlns="http://www.w3.org/2000/svg">
<path fill-rule="evenodd" clip-rule="evenodd" d="M2.56982 84.8213L2.56982 72.2617C2.9549 70.05 4.11293 68.1149 5.74544 66.7603L87.391 66.7603L87.391 84.8213L85.0286 84.8213L85.0286 82.4383C85.0286 78.4347 83.7642 75.4654 81.2345 73.5269C78.7059 71.5897 74.8308 70.6206 69.6063 70.6206L20.231 70.6206C14.9662 70.6206 11.0896 71.5897 8.58189 73.5115C6.07417 75.4326 4.809 78.404 4.809 82.4383L4.809 84.8213L2.56982 84.8213ZM5.48106 34.4097C6.11764 17.8838 23.5479 4.63718 44.9593 4.63718C66.3701 4.63718 83.8003 17.8841 84.4369 34.4097L84.4206 34.4097C83.5704 22.2458 66.2299 12.5335 44.9593 12.5335C23.6881 12.5335 6.34758 22.2462 5.49706 34.4097L5.48106 34.4097ZM2.56982 62.4249L2.56982 41.6641C2.56982 34.643 3.71046 28.528 5.99103 23.3022C8.29142 18.0761 11.7954 13.6765 16.5208 10.1021C20.6252 6.8786 25.2263 4.38509 30.368 2.63657C35.5083 0.873389 40.7941 -0.000177147 46.2248 -0.000177384C52.1736 -0.000177644 57.6872 0.953565 62.7458 2.8433C67.803 4.73372 72.1762 7.40254 75.8451 10.8651C79.5352 14.3277 82.3759 18.4411 84.3854 23.1753C86.3971 27.9242 87.3913 33.0729 87.3913 38.5992L87.3913 62.4252L2.57018 62.4252L2.56982 62.4249ZM4.809 56.8972L85.0286 56.8972L85.0286 44.3165C85.0286 40.7587 84.7587 37.7253 84.24 35.2471C83.7228 32.7536 82.851 30.5924 81.6492 28.7183C80.4678 26.8607 78.8927 25.2397 76.9437 23.8422C70.104 18.6802 59.5736 16.1073 45.375 16.1073C40.7113 16.1073 36.3161 16.4245 32.171 17.059C28.0255 17.6948 24.3559 18.6161 21.205 19.8393C18.0548 21.0458 15.2771 22.5556 12.8926 24.3986C10.9442 25.9226 9.36945 27.6384 8.18812 29.5452C6.98522 31.4506 6.11487 33.6586 5.59726 36.1524C5.0779 38.647 4.80864 41.6477 4.80864 45.1583L4.80864 56.8969L4.809 56.8972Z" fill="black" fill-opacity="0.09"/>
<path d="M1.50452 575.196L1.50452 563.141L79.3052 508.773L84.058 508.773L84.058 510.159L11.5692 561.167L60.1149 561.167C64.8274 561.167 68.6016 560.763 71.4371 559.939C74.2533 559.117 76.4694 557.789 78.0667 555.956C79.3251 554.455 80.1237 552.651 80.4633 550.5C80.7429 549.316 80.9427 547.628 81.0626 545.42L83.2192 545.42L83.2192 576.249L81.0626 576.249C80.8225 573.102 80.0438 570.52 78.7459 568.543C77.4277 566.55 75.4908 565.092 72.915 564.139C70.359 563.201 67.1441 562.725 63.3297 562.725L17.1203 562.725C14.2649 562.725 11.8484 563.187 9.8716 564.097C7.87466 565.02 6.33777 566.348 5.27921 568.095C4.20028 569.841 3.6616 571.948 3.6616 574.43L3.6616 575.196L1.50452 575.196ZM1.50452 558.078L1.50452 551.468L60.3346 510.419L25.1287 510.419C20.8357 510.419 17.0811 510.953 13.8663 512.007C10.6506 513.06 8.19468 514.576 6.53683 516.582C5.59871 517.65 4.91974 518.733 4.54016 519.815C4.14124 520.897 3.86171 522.414 3.66186 524.362L1.50478 524.362L1.50477 495.09L3.54195 495.09L3.54195 517.201L3.54534 517.197C4.1799 511.637 9.44447 508.469 19.6554 508.475C21.487 508.674 23.4714 508.772 25.6081 508.774L71.1777 508.821L1.50478 558.079L1.50452 558.078Z" fill="black" fill-opacity="0.09"/>
<path d="M1.50544 422.631L1.50544 412.243L80.9086 384.482L84.7779 385.724L84.8981 387.197L15.8837 410.074C7.73608 412.772 3.66278 416.28 3.66278 420.553L3.66278 422.632L1.5057 422.632L1.50544 422.631ZM1.50439 407.925L1.50544 388.092L3.66252 388.092L3.66252 392.321C3.66252 394.227 4.2012 395.741 5.29999 396.838C6.39799 397.936 7.93593 398.485 9.91302 398.485C11.7898 398.485 14.0059 398.08 16.5825 397.258L65.4872 381.149L23.3127 367.626C20.0772 366.558 17.2819 366.009 14.9451 366.009C11.5897 366.009 8.93414 366.774 6.93746 368.274C4.94052 369.791 3.86237 371.884 3.66252 374.553L1.50544 374.553L1.50544 350.752L3.66252 350.752C4.02173 353.004 4.92066 355.025 6.37814 356.801C7.8364 358.575 9.95246 360.192 12.6885 361.665C15.4443 363.123 19.0986 364.609 23.6719 366.095L75.5916 382.828L1.50439 407.925Z" fill="black" fill-opacity="0.09"/>
<path d="M2.57016 159.361L2.57016 150.085C3.6266 146.855 6.59765 144.451 10.19 144.127L87.3903 144.127L87.3903 159.287L85.1525 159.361L85.1525 157.699C85.1525 150.268 79.9695 146.553 69.6054 146.553L20.2308 146.553C14.966 146.553 11.0895 147.467 8.58182 149.279C6.07412 151.092 4.80896 153.894 4.80896 157.699L4.80896 159.361L2.56982 159.361L2.57016 159.361ZM2.57016 140.196L2.57016 109.154L2.67382 109.059C3.16778 102.68 8.78113 97.5411 15.9167 96.8111L15.9212 96.8066L2.57016 96.8066L2.57016 94.1502L35.3837 94.1502L35.3837 95.4673C29.6417 96.666 25.3516 97.7441 22.4905 98.689C19.6506 99.6471 16.9352 100.876 14.407 102.404C11.3601 104.247 9.20343 106.255 7.89793 108.411C5.84627 112.022 4.80965 116.397 4.80965 121.535L4.80965 133.61L45.1049 133.61L45.1049 130.359C45.1049 125.535 42.224 121.7 36.4823 118.869C33.5398 117.4 30.0156 116.321 25.9318 115.617C24.1908 115.258 21.6205 114.944 18.2209 114.644L18.2209 113.116L73.8548 113.116L73.8548 114.644C70.8706 115.003 68.0519 115.424 65.3988 115.903C62.7461 116.382 60.5901 116.922 58.9322 117.52C57.2729 118.118 55.6154 118.899 53.9564 119.827C49.4587 122.464 47.2206 126.209 47.2206 131.063L47.2206 133.61L85.1532 133.61L85.1532 123.513C85.1532 120.532 84.8627 117.85 84.2822 115.469C83.6818 113.072 82.7686 110.928 81.5463 109.026C80.3027 107.123 78.706 105.341 76.717 103.677C73.3591 100.816 69.1717 98.5851 64.1552 97.0109C61.2743 96.0979 57.3981 95.153 52.5062 94.1509L52.5062 92.5323L87.3913 92.5323L87.3913 95.6005L74.0476 95.6005L74.0521 95.605C81.1887 96.335 86.8017 101.474 87.2949 107.853L87.3913 107.942L87.3913 140.197L2.57122 140.197L2.57016 140.196Z" fill="black" fill-opacity="0.09"/>
<path d="M2.6324 272.457L2.6324 261.148L84.9924 236.751L87.3909 237.496L87.3909 239.306L21.7456 257.928C15.7666 259.565 11.4494 261.391 8.7944 263.422C6.13872 265.452 4.82143 267.924 4.82143 270.836L4.82143 272.457L2.63207 272.457L2.6324 272.457ZM2.75927 257.214L2.6324 238.928L4.82177 238.833C4.86157 241.573 5.32855 243.587 6.24042 244.862C7.15263 246.137 8.57163 246.767 10.5165 246.767C12.4215 246.767 14.4285 246.499 16.5159 245.933L65.016 232.332L22.9211 219.188C18.8879 220.275 15.9288 221.218 14.0231 222.037C12.1181 222.84 10.3957 223.879 8.85596 225.138C7.35602 226.257 6.30096 227.39 5.71391 228.585C5.12584 229.765 4.82177 231.199 4.82177 232.883L2.6324 232.883L2.6324 223.134L85.7845 198.501L87.3913 198.992L87.3913 200.707L25.6162 218.323L78.3161 234.741L2.75927 257.214ZM2.56982 219.023L2.63275 197.937L4.8221 197.937L4.8221 199.637C4.8221 202.407 5.43024 204.564 6.62611 206.091C7.84171 207.633 9.58519 208.405 11.895 208.405C13.435 208.405 14.8948 208.185 16.273 207.76L65.016 193.876L20.3667 180.275C17.9546 179.599 15.7866 179.252 13.8408 179.252C10.8817 179.252 8.65256 180.165 7.19378 181.959C5.73397 183.754 4.94387 186.524 4.82177 190.288L2.6324 190.365L2.6324 164.502L4.82177 164.502C4.98367 166.218 5.32855 167.619 5.85574 168.674C6.40266 169.729 7.27439 170.893 8.51074 172.153C11.1045 174.734 15.32 176.938 21.1371 178.749L79.9028 196.662L2.56982 219.023L2.56982 219.023Z" fill="black" fill-opacity="0.09"/>
<path d="M2.69374 315.535C2.69374 310.022 3.91166 304.97 6.36864 300.38C8.80473 295.805 12.3785 291.821 17.0718 288.443C21.0455 285.587 25.4791 283.392 30.3719 281.833C35.2634 280.289 40.2566 279.509 45.3688 279.509C53.0567 279.509 60.1254 281.083 66.5961 284.229C73.0663 287.361 78.1979 291.633 81.9721 297.032C82.434 297.693 82.8681 298.361 83.2736 299.038C76.0651 289.267 65.8685 284.394 46.7871 284.4C19.4321 284.407 5.33412 298.956 4.79126 313.834C4.22254 329.415 18.4898 345.36 46.7871 345.353C66.0399 345.349 75.5549 340.884 82.8629 331.414C80.8861 334.596 78.3826 337.473 75.3219 340.043C71.4082 343.334 66.8354 345.903 61.6032 347.751C56.3914 349.597 50.9197 350.521 45.2285 350.521C37.6598 350.521 30.6109 348.934 24.0404 345.744C17.4905 342.569 12.2986 338.296 8.4646 332.941C4.61074 327.601 2.69348 321.799 2.69348 315.535L2.69374 315.535ZM5.11808 317.515C7.63097 329.779 27.6795 340.814 47.2709 340.814C68.2179 340.814 81.3851 331.907 86.7627 322.211C87.3482 319.805 87.6431 317.32 87.6431 314.756C87.6431 312.407 87.3892 310.128 86.8827 307.917C81.6238 298.109 66.0245 288.47 45.9801 288.47C25.9368 288.47 8.04295 299.983 5.24504 311.674L5.24504 311.673C5.401 311.111 5.60294 310.54 5.84825 309.964C6.50789 308.405 7.38619 307.049 8.48445 305.866C10.541 303.47 13.3373 301.42 16.8711 299.731C20.3862 298.043 24.5394 296.743 29.2922 295.849C34.0447 294.94 39.157 294.492 44.6089 294.492C53.0363 294.492 60.3049 295.314 66.4156 296.96C72.5459 298.62 77.2593 300.988 80.5535 304.061C83.8488 307.15 85.4863 310.773 85.4863 314.944C85.4863 318.019 84.5471 320.819 82.6706 323.315C80.8135 325.826 78.0981 327.977 74.5227 329.782C70.9484 331.586 66.715 332.971 61.7827 333.924C56.8499 334.891 51.3784 335.367 45.368 335.367C40.575 335.367 36.1017 335.064 31.9485 334.459C27.7947 333.852 24.0402 332.957 20.6657 331.759C17.2904 330.561 14.3752 329.118 11.9193 327.415C9.66266 325.87 7.92565 323.965 6.6871 321.699C6.03582 320.481 5.55644 319.225 5.25026 317.927C5.20272 317.81 5.15857 317.673 5.11755 317.515L5.11808 317.515Z" fill="black" fill-opacity="0.09"/>
<path d="M0.000259714 458.273C0.000259473 452.76 1.21817 447.708 3.67464 443.119C6.11073 438.543 9.68505 434.559 14.3778 431.182C18.3515 428.325 22.7853 426.131 27.6779 424.572C32.5697 423.027 37.5625 422.248 42.6748 422.248C50.3629 422.248 57.4314 423.821 63.9021 426.967C70.3723 430.1 75.5041 434.372 79.2783 439.77C79.7399 440.432 80.1744 441.099 80.5798 441.776C73.3711 432.006 63.1748 427.133 44.0933 427.138C16.7383 427.145 2.64038 441.694 2.09699 456.573C1.52853 472.153 15.7955 488.099 44.0933 488.091C63.3456 488.087 72.8606 483.623 80.1692 474.152C78.1921 477.334 75.6886 480.211 72.6281 482.781C68.7142 486.072 64.1414 488.641 58.9092 490.489C53.6974 492.336 48.2259 493.26 42.535 493.26C34.966 493.26 27.9169 491.672 21.3469 488.483C14.7971 485.307 9.60511 481.034 5.77085 475.679C1.917 470.339 -1.25549e-06 464.537 -1.52932e-06 458.273L0.000259714 458.273ZM2.42459 460.253C4.93749 472.517 24.9855 483.552 44.5772 483.552C65.5244 483.552 78.6913 474.645 84.069 464.95C84.6544 462.543 84.9494 460.058 84.9494 457.494C84.9494 455.145 84.6954 452.866 84.1889 450.655C78.9306 440.848 63.3313 431.208 43.2864 431.208C23.2433 431.208 5.34921 442.721 2.55156 454.412L2.55156 454.411C2.70752 453.849 2.90946 453.279 3.15477 452.702C3.81414 451.144 4.6927 449.788 5.79071 448.604C7.84773 446.209 10.6438 444.159 14.1779 442.47C17.6929 440.781 21.8462 439.482 26.5987 438.587C31.3515 437.678 36.4637 437.231 41.9154 437.231C50.3428 437.231 57.6114 438.053 63.7221 439.698C69.8524 441.358 74.5657 443.726 77.8605 446.8C81.1559 449.889 82.7933 453.511 82.7933 457.682C82.7933 460.758 81.8542 463.557 79.9771 466.054C78.12 468.565 75.4046 470.716 71.8295 472.52C68.2552 474.325 64.0212 475.71 59.0892 476.663C54.1567 477.63 48.685 478.106 42.6745 478.106C37.8815 478.106 33.4085 477.803 29.255 477.197C25.1013 476.59 21.3469 475.695 17.9725 474.497C14.5972 473.3 11.6817 471.856 9.22579 470.153C6.96917 468.609 5.23243 466.704 3.99388 464.438C3.34208 463.219 2.86296 461.963 2.55678 460.665C2.50924 460.549 2.46535 460.411 2.42433 460.253L2.42459 460.253Z" fill="black" fill-opacity="0.09"/>
</svg>
