<svg width="33" height="33" viewBox="0 0 33 33" fill="none" xmlns="http://www.w3.org/2000/svg">
<circle cx="16.5" cy="16.5" r="16" fill="" stroke="black"/>
<path d="M21.7761 18.8016C21.4907 18.6549 20.0689 17.9585 19.8044 17.8642C19.54 17.7647 19.3462 17.7176 19.1551 18.0108C18.9613 18.3015 18.4114 18.9482 18.2386 19.1446C18.0711 19.3384 17.9009 19.3619 17.6154 19.2179C15.9187 18.3695 14.8059 17.7045 13.6878 15.7852C13.392 15.2746 13.9837 15.3112 14.5362 14.2089C14.6305 14.0151 14.5833 13.8502 14.51 13.7035C14.4367 13.5569 13.8607 12.1377 13.6198 11.5591C13.3867 10.9961 13.1458 11.0747 12.9704 11.0642C12.8028 11.0537 12.6117 11.0537 12.4179 11.0537C12.2241 11.0537 11.9126 11.127 11.6481 11.4124C11.3836 11.7031 10.6374 12.4022 10.6374 13.8214C10.6374 15.2405 11.6717 16.6152 11.8131 16.809C11.9597 17.0027 13.8476 19.9144 16.7461 21.1686C18.579 21.9594 19.2965 22.0275 20.2129 21.8913C20.7706 21.8075 21.9201 21.1948 22.1584 20.5166C22.3967 19.8411 22.3967 19.2624 22.326 19.142C22.2553 19.0137 22.0615 18.9404 21.7761 18.8016Z" fill="black"/>
<path d="M27.3193 11.9544C26.7275 10.5484 25.8791 9.28629 24.7977 8.20226C23.7163 7.12086 22.4543 6.26988 21.0456 5.68074C19.6054 5.07589 18.0763 4.76953 16.5 4.76953H16.4476C14.8609 4.77739 13.3239 5.0916 11.8785 5.70954C10.4829 6.30654 9.23129 7.1549 8.16037 8.2363C7.08944 9.31771 6.24893 10.5745 5.66764 11.9754C5.06541 13.426 4.76167 14.9682 4.76953 16.555C4.77738 18.3722 5.21204 20.1762 6.02636 21.7892V25.7692C6.02636 26.4342 6.56576 26.9736 7.23083 26.9736H11.2134C12.8264 27.788 14.6305 28.2226 16.4476 28.2305H16.5026C18.071 28.2305 19.5923 27.9267 21.0246 27.3324C22.4255 26.7485 23.6849 25.9106 24.7637 24.8396C25.8451 23.7687 26.6961 22.5171 27.2905 21.1215C27.9084 19.6761 28.2226 18.1391 28.2305 16.5524C28.2383 14.9578 27.9293 13.4103 27.3193 11.9544ZM23.3628 23.4231C21.5273 25.2402 19.0922 26.2405 16.5 26.2405H16.4555C14.8766 26.2326 13.3082 25.8399 11.923 25.1015L11.7031 24.9836H8.01635V21.2969L7.89853 21.077C7.16013 19.6918 6.76737 18.1234 6.75952 16.5445C6.74904 13.934 7.74666 11.4831 9.57692 9.63715C11.4046 7.79117 13.8475 6.77 16.4581 6.75952H16.5026C17.8118 6.75952 19.0817 7.01351 20.2784 7.51624C21.4462 8.00588 22.4935 8.71024 23.3943 9.61097C24.2924 10.5091 24.9993 11.5591 25.489 12.7269C25.997 13.9366 26.2509 15.2196 26.2457 16.5445C26.23 19.1524 25.2062 21.5954 23.3628 23.4231Z" fill="black"/>
</svg>
