<svg width="38" height="38" viewBox="0 0 38 38" fill="none" xmlns="http://www.w3.org/2000/svg">
<g id="Frame 1567">
<circle id="Ellipse 101" cx="19" cy="19" r="19" fill=""/>
<path id="Vector" d="M28.8212 13.1206L28.8775 12.8551L28.8669 12.8444C28.9448 12.2253 28.8184 11.6783 28.4434 11.3128C28.0075 10.8881 27.3877 10.855 26.8436 11.0509L26.8436 11.0508L26.8332 11.0548L8.51474 18.1192L8.51287 18.1199C8.16582 18.2553 7.87457 18.417 7.65777 18.6076C7.44362 18.7957 7.26314 19.0484 7.23609 19.3604C7.20767 19.6884 7.35816 19.9625 7.56482 20.1567C7.76438 20.3442 8.03338 20.4781 8.32978 20.5715L8.33114 20.5719L13.0199 22.0355L13.24 22.1043L13.4352 21.9814L22.0782 16.5404L15.501 22.4829L15.3514 22.6181L15.3374 22.8192L15.0003 27.6537L14.963 28.1885H15.4991C15.8253 28.1885 16.0895 28.115 16.3183 27.9819C16.5219 27.8635 16.6788 27.7064 16.7956 27.5895L16.8068 27.5783L18.7904 25.6678L23.2008 28.9184L23.2249 28.9362L23.251 28.951C23.7424 29.2294 24.2948 29.3724 24.7997 29.144C25.3029 28.9165 25.5726 28.4039 25.7018 27.8198L25.7027 27.8156L28.8212 13.1206ZM0.5 19C0.5 8.78077 8.77958 0.5 19 0.5C29.2192 0.5 37.5 8.78079 37.5 19C37.5 29.2192 29.2204 37.5 19 37.5C8.78079 37.5 0.5 29.2192 0.5 19Z" fill="" stroke="black"/>
</g>
</svg>
