<svg width="698" height="102" viewBox="0 0 698 102" fill="none" xmlns="http://www.w3.org/2000/svg">
<path fill-rule="evenodd" clip-rule="evenodd" d="M604.429 4.20312H618.285C620.725 4.63568 622.86 5.93647 624.354 7.77022V99.4809H604.429V96.8273H607.058C611.474 96.8273 614.75 95.407 616.889 92.5655C619.026 89.7252 620.095 85.3723 620.095 79.5037V24.0416C620.095 18.1277 619.026 13.7732 616.906 10.9563C614.786 8.13948 611.508 6.71835 607.058 6.71835H604.429V4.20312ZM660.044 7.47326C678.275 8.18832 692.889 27.7673 692.889 51.8184C692.889 75.8686 678.275 95.4476 660.044 96.1627V96.1443C673.463 95.1893 684.178 75.7112 684.178 51.8184C684.178 27.9248 673.463 8.4466 660.044 7.49123V7.47326ZM629.137 4.20312H652.041C659.786 4.20312 666.533 5.48438 672.298 8.04609C678.063 10.6301 682.917 14.566 686.86 19.8739C690.417 24.4843 693.167 29.6526 695.096 35.4282C697.042 41.2022 698.005 47.1396 698.005 53.2399C698.005 59.922 696.953 66.1153 694.868 71.7975C692.783 77.4781 689.839 82.3905 686.019 86.5117C682.199 90.6567 677.661 93.8475 672.438 96.1049C667.199 98.3645 661.518 99.4813 655.422 99.4813H629.136V4.20353L629.137 4.20312ZM635.235 6.71835V96.8273H649.114C653.039 96.8273 656.386 96.5241 659.12 95.9415C661.871 95.3605 664.255 94.3813 666.323 93.0313C668.372 91.7043 670.16 89.935 671.702 87.7457C677.397 80.0629 680.235 68.2343 680.235 52.2853C680.235 47.0466 679.885 42.1096 679.185 37.4535C678.484 32.797 677.468 28.675 676.118 25.1356C674.787 21.5971 673.121 18.477 671.088 15.7984C669.407 13.6099 667.514 11.841 665.41 10.514C663.308 9.16284 660.872 8.1852 658.121 7.60378C655.369 7.0204 652.059 6.71795 648.186 6.71795H635.235L635.235 6.71835Z" fill="#323232"/>
<path d="M1.2071 2.52246H15.0215L77.3256 91.6801V97.1267H75.7377L17.2831 14.0563V69.6884C17.2831 75.0889 17.7467 79.414 18.6905 82.6634C19.6325 85.8907 21.155 88.4304 23.2553 90.2607C24.9754 91.7029 27.0431 92.618 29.5076 93.0072C30.8641 93.3276 32.7985 93.5566 35.3298 93.694V96.1654H0V93.694C3.6062 93.4189 6.56568 92.5264 8.83136 91.0391C11.1151 89.5285 12.7852 87.3089 13.8775 84.357C14.9526 81.4279 15.4982 77.7438 15.4982 73.3726V20.4178C15.4982 17.1456 14.9686 14.3763 13.9263 12.1109C12.8686 9.82248 11.3464 8.06125 9.34437 6.84817C7.34348 5.61174 4.92869 4.99442 2.08402 4.99442H1.2071V2.52246ZM20.8233 2.52246H28.3988L75.4395 69.9402V29.5952C75.4395 24.6755 74.8277 20.3729 73.62 16.6887C72.4132 13.0037 70.6759 10.1892 68.3774 8.28937C67.1534 7.21431 65.912 6.43622 64.6721 6.00123C63.4315 5.54408 61.694 5.22375 59.4614 4.99472V2.52276H93.0057V4.85731H67.6679L67.6719 4.8612C74.0432 5.58839 77.6744 11.6214 77.6671 23.3229C77.4389 25.4219 77.3267 27.6959 77.325 30.1445L77.2712 82.3662L20.8225 2.52276L20.8233 2.52246Z" fill="#323232"/>
<path d="M176.043 2.52366H187.947L219.761 93.5177L218.337 97.9518L216.649 98.0895L190.433 19.0008C187.341 9.66381 183.321 4.99592 178.424 4.99592H176.042V2.52396L176.043 2.52366ZM192.896 2.52246L215.624 2.52366V4.99562H210.777C208.593 4.99562 206.858 5.61294 205.601 6.87212C204.343 8.1304 203.714 9.89284 203.714 12.1585C203.714 14.3093 204.178 16.8489 205.12 19.8016L223.58 75.8451L239.078 27.5142C240.302 23.8064 240.93 20.6031 240.93 17.9251C240.93 14.0799 240.053 11.0368 238.335 8.74862C236.596 6.46018 234.198 5.22464 231.139 4.99562V2.52366H258.414V4.99562C255.833 5.40726 253.517 6.43742 251.483 8.10765C249.449 9.77878 247.596 12.2037 245.908 15.3391C244.238 18.4972 242.535 22.6849 240.832 27.9258L221.656 87.4245L192.896 2.52246Z" fill="#323232"/>
<path d="M517.657 4.20351H528.758C532.622 5.39018 535.499 8.72749 535.886 12.7627V99.4801H517.746L517.657 96.9665H519.647C528.538 96.9665 532.984 91.1445 532.984 79.5028V24.0413C532.984 18.1275 531.89 13.7731 529.721 10.9563C527.552 8.13943 524.2 6.7183 519.647 6.7183H517.657V4.20312V4.20351ZM540.59 4.20351H577.733L577.848 4.31995C585.48 4.8748 591.63 11.1802 592.503 19.1954L592.508 19.2005V4.20351H595.687V41.0623H594.111C592.677 34.6124 591.387 29.7934 590.256 26.5796C589.11 23.3896 587.639 20.3395 585.811 17.4996C583.606 14.0771 581.203 11.6545 578.623 10.1881C574.302 7.88349 569.068 6.71908 562.919 6.71908H548.471V51.9819H552.361C558.133 51.9819 562.722 48.7458 566.11 42.2962C567.867 38.991 569.158 35.0324 570 30.4451C570.43 28.4895 570.806 25.6023 571.165 21.7836H572.993V84.2761H571.165C570.735 80.9239 570.232 77.7577 569.659 74.7776C569.085 71.7978 568.439 69.376 567.723 67.5137C567.007 65.6499 566.074 63.788 564.963 61.9246C561.808 56.8724 557.327 54.3583 551.518 54.3583H548.471V96.9672H560.552C564.12 96.9672 567.328 96.641 570.178 95.9888C573.046 95.3144 575.611 94.2887 577.887 92.9157C580.164 91.5188 582.296 89.7253 584.287 87.4911C587.711 83.7192 590.38 79.0155 592.264 73.3807C593.357 70.1446 594.487 65.7906 595.686 60.2956H597.623V99.4813H593.952V84.4925L593.946 84.4976C593.073 92.514 586.924 98.8189 579.291 99.373L579.184 99.4813H540.589V4.20469L540.59 4.20351Z" fill="#323232"/>
<path d="M393.456 4.27467H405.932L432.847 98.4399L432.026 101.182H430.029L409.484 26.1275C407.678 19.2915 405.664 14.3555 403.424 11.3199C401.183 8.28358 398.457 6.77746 395.244 6.77746H393.456V4.27429V4.27467ZM410.272 4.41972L430.446 4.27467L430.551 6.77786C427.527 6.82336 425.305 7.35728 423.899 8.39986C422.492 9.44282 421.797 11.0652 421.797 13.2888C421.797 15.4669 422.093 17.7616 422.718 20.1481L437.723 75.6001L452.223 27.4714C451.024 22.8602 449.983 19.4769 449.08 17.2981C448.195 15.12 447.048 13.1507 445.659 11.3903C444.425 9.67536 443.174 8.46908 441.856 7.79788C440.554 7.12552 438.973 6.77786 437.115 6.77786V4.27467H447.87L475.046 99.3456L474.504 101.183H472.612L453.178 30.5529L435.065 90.8067L410.272 4.41972ZM452.406 4.20312L475.667 4.27507V6.77824H473.793C470.736 6.77824 468.357 7.47355 466.672 8.84084C464.97 10.2307 464.119 12.2241 464.119 14.8649C464.119 16.6257 464.362 18.2948 464.831 19.8705L480.147 75.6001L495.153 24.551C495.899 21.7931 496.281 19.3144 496.281 17.0897C496.281 13.7064 495.274 11.1577 493.295 9.48987C491.315 7.82082 488.259 6.91747 484.107 6.77786L484.021 4.27467H512.553V6.77786C510.661 6.96297 509.115 7.35728 507.952 7.96004C506.787 8.58535 505.503 9.58204 504.113 10.9956C501.266 13.9612 498.834 18.7809 496.837 25.4318L477.074 92.6208L452.405 4.20312H452.406Z" fill="#323232"/>
<path d="M298.768 3.88799C305.087 3.88799 310.876 5.28369 316.135 8.09934C321.378 10.891 325.944 14.9865 329.815 20.3648C333.089 24.9187 335.603 29.9994 337.39 35.6065C339.159 41.212 340.053 46.934 340.053 52.7925C340.053 61.6026 338.25 69.7032 334.644 77.1185C331.055 84.5331 326.159 90.4138 319.972 94.7389C319.215 95.2682 318.449 95.7658 317.674 96.2304C328.87 87.9697 334.455 76.2847 334.449 54.4179C334.441 23.0697 317.768 6.91381 300.717 6.2917C282.862 5.63995 264.59 21.9899 264.598 54.4179C264.602 76.4811 269.719 87.385 280.572 95.7598C276.925 93.4944 273.629 90.6255 270.683 87.118C266.911 82.633 263.968 77.3927 261.85 71.3968C259.734 65.4242 258.675 59.1537 258.675 52.6318C258.675 43.9582 260.494 35.8804 264.149 28.3507C267.788 20.8447 272.685 14.8949 278.821 10.5012C284.941 6.08483 291.59 3.8877 298.769 3.8877L298.768 3.88799ZM296.5 6.66622C282.446 9.54593 269.8 32.5211 269.8 54.9723C269.8 78.977 280.007 94.0662 291.117 100.229C293.875 100.9 296.723 101.238 299.661 101.238C302.353 101.238 304.964 100.947 307.498 100.366C318.738 94.3399 329.784 76.4634 329.784 53.4931C329.784 30.5239 316.591 10.0181 303.193 6.81172H303.194C303.838 6.99045 304.492 7.22186 305.153 7.50298C306.939 8.25891 308.493 9.26542 309.849 10.524C312.594 12.8807 314.943 16.0852 316.879 20.1349C318.814 24.163 320.303 28.9226 321.328 34.3691C322.37 39.8154 322.883 45.6739 322.883 51.9216C322.883 61.5793 321.941 69.9089 320.055 76.9116C318.153 83.9368 315.439 89.3382 311.917 93.1133C308.377 96.8897 304.226 98.7662 299.446 98.7662C295.922 98.7662 292.713 97.6899 289.852 95.5395C286.975 93.4112 284.51 90.2995 282.442 86.2022C280.374 82.1061 278.787 77.2547 277.695 71.6024C276.587 65.9496 276.041 59.6794 276.041 52.7916C276.041 47.299 276.388 42.1727 277.082 37.4132C277.778 32.6531 278.803 28.3504 280.176 24.4834C281.548 20.6154 283.203 17.2747 285.155 14.4602C286.924 11.8742 289.108 9.88363 291.704 8.46428C293.101 7.71793 294.54 7.16858 296.027 6.8177C296.161 6.76322 296.319 6.71262 296.5 6.66562L296.5 6.66622Z" fill="#323232"/>
<path d="M135.195 0.800104C141.513 0.800104 147.302 2.1958 152.562 5.01085C157.805 7.80255 162.37 11.8986 166.241 17.2764C169.515 21.8302 172.03 26.9112 173.816 32.518C175.586 38.1238 176.479 43.8455 176.479 49.704C176.479 58.5144 174.676 66.6147 171.071 74.03C167.481 81.4447 162.586 87.3256 156.399 91.6507C155.641 92.1797 154.876 92.6776 154.101 93.1422C165.297 84.8812 170.882 73.1965 170.876 51.3297C170.867 19.9815 154.194 3.82561 137.144 3.20291C119.289 2.55146 101.016 18.9011 101.024 51.3297C101.029 73.3923 106.145 84.2962 116.998 92.6716C113.352 90.4059 110.055 87.537 107.11 84.0298C103.338 79.5445 100.394 74.3042 98.2768 68.3083C96.1602 62.3357 95.1014 56.0655 95.1014 49.5439C95.1014 40.87 96.9209 32.7919 100.576 25.2628C104.215 17.7569 109.111 11.807 115.248 7.41306C121.368 2.99664 128.016 0.799805 135.195 0.799805L135.195 0.800104ZM132.926 3.57833C118.873 6.45804 106.226 29.4326 106.226 51.8841C106.226 75.8891 116.433 90.978 127.544 97.1407C130.302 97.8116 133.149 98.1496 136.088 98.1496C138.78 98.1496 141.392 97.8586 143.925 97.2781C155.164 91.2523 166.211 73.3758 166.211 50.4049C166.211 27.436 153.018 6.92986 139.62 3.72383H139.621C140.265 3.90255 140.919 4.13397 141.579 4.41509C143.365 5.17072 144.919 6.17752 146.276 7.43581C149.021 9.79311 151.37 12.9973 153.305 17.0473C155.241 21.0755 156.729 25.835 157.755 31.2812C158.796 36.7278 159.309 42.5863 159.309 48.8337C159.309 58.4914 158.367 66.821 156.482 73.8237C154.579 80.8489 151.866 86.2503 148.343 90.026C144.804 93.8024 140.652 95.6789 135.872 95.6789C132.348 95.6789 129.14 94.6026 126.279 92.4516C123.401 90.3233 120.936 87.2116 118.868 83.1146C116.8 79.0185 115.213 74.1665 114.121 68.5145C113.013 62.862 112.467 56.5915 112.467 49.7037C112.467 44.2111 112.815 39.0851 113.509 34.3253C114.204 29.5652 115.23 25.2628 116.603 21.3958C117.975 17.5278 119.629 14.1868 121.581 11.3723C123.351 8.7863 125.534 6.79604 128.131 5.37669C129.527 4.62974 130.967 4.08068 132.454 3.72981C132.587 3.67533 132.745 3.62503 132.926 3.57803L132.926 3.57833Z" fill="#323232"/>
</svg>
