<svg width="82" height="81" viewBox="0 0 82 81" fill="none" xmlns="http://www.w3.org/2000/svg">
<g id="Group 540464806">
<g id="Group" filter="url(#filter0_d_1305_852)">
<path id="Vector" d="M40.7613 60.7424C51.4668 60.7424 60.1454 51.9059 60.1454 41.0055C60.1454 30.1051 51.4668 21.2686 40.7613 21.2686C30.0558 21.2686 21.3773 30.1051 21.3773 41.0055C21.3773 51.9059 30.0558 60.7424 40.7613 60.7424Z" fill="white"/>
</g>
<path id="Vector_2" d="M66.7731 40.6555C66.7731 54.9549 55.1799 66.5381 40.8905 66.5381C26.6011 66.5381 15.0084 54.9549 15.0084 40.6555C15.0084 26.3561 26.6011 14.7734 40.8905 14.7734C55.1799 14.7734 66.7731 26.3561 66.7731 40.6555Z" stroke="white" stroke-width="0.611879"/>
<path id="Vector_3" d="M73.8319 41.243C73.8319 59.7659 59.0786 74.7727 40.8907 74.7727C22.7029 74.7727 7.94958 59.7659 7.94958 41.243C7.94958 22.7201 22.7029 7.71387 40.8907 7.71387C59.0786 7.71387 73.8319 22.7201 73.8319 41.243Z" stroke="white" stroke-opacity="0.3" stroke-width="0.611879"/>
<path id="Vector_4" d="M80.8907 40.655C80.8907 62.7515 62.977 80.6553 40.8908 80.6553C18.8044 80.6553 0.890747 62.7515 0.890747 40.655C0.890747 18.559 18.8044 0.655273 40.8908 0.655273C62.977 0.655273 80.8907 18.559 80.8907 40.655Z" stroke="white" stroke-opacity="0.15" stroke-width="0.611879"/>
<g id="Group_2" filter="url(#filter1_d_1305_852)">
<path id="Vector_5" d="M49.0625 39.8344C49.917 40.2973 49.917 41.5236 49.0625 41.9865L38.738 47.5792C37.9226 48.0208 36.9314 47.4305 36.9314 46.5031V35.3182C36.9314 34.3909 37.9226 33.8006 38.738 34.2422L49.0625 39.8344Z" fill="#D6C3BC"/>
</g>
</g>
<defs>
<filter id="filter0_d_1305_852" x="15.2585" y="15.1498" width="51.0057" height="51.7112" filterUnits="userSpaceOnUse" color-interpolation-filters="sRGB">
<feFlood flood-opacity="0" result="BackgroundImageFix"/>
<feColorMatrix in="SourceAlpha" type="matrix" values="0 0 0 0 0 0 0 0 0 0 0 0 0 0 0 0 0 0 127 0" result="hardAlpha"/>
<feOffset/>
<feGaussianBlur stdDeviation="3.0594"/>
<feComposite in2="hardAlpha" operator="out"/>
<feColorMatrix type="matrix" values="0 0 0 0 1 0 0 0 0 1 0 0 0 0 1 0 0 0 1 0"/>
<feBlend mode="normal" in2="BackgroundImageFix" result="effect1_dropShadow_1305_852"/>
<feBlend mode="normal" in="SourceGraphic" in2="effect1_dropShadow_1305_852" result="shape"/>
</filter>
<filter id="filter1_d_1305_852" x="30.3755" y="27.5369" width="25.8837" height="26.7474" filterUnits="userSpaceOnUse" color-interpolation-filters="sRGB">
<feFlood flood-opacity="0" result="BackgroundImageFix"/>
<feColorMatrix in="SourceAlpha" type="matrix" values="0 0 0 0 0 0 0 0 0 0 0 0 0 0 0 0 0 0 127 0" result="hardAlpha"/>
<feOffset/>
<feGaussianBlur stdDeviation="3.27792"/>
<feComposite in2="hardAlpha" operator="out"/>
<feColorMatrix type="matrix" values="0 0 0 0 0.839216 0 0 0 0 0.764706 0 0 0 0 0.737255 0 0 0 1 0"/>
<feBlend mode="normal" in2="BackgroundImageFix" result="effect1_dropShadow_1305_852"/>
<feBlend mode="normal" in="SourceGraphic" in2="effect1_dropShadow_1305_852" result="shape"/>
</filter>
</defs>
</svg>
