<svg width="17" height="16" viewBox="0 0 17 16" fill="none" xmlns="http://www.w3.org/2000/svg">
<path id="Star 2" d="M6.98972 1.20714C7.47006 0.227291 8.86676 0.227292 9.34711 1.20714L10.8231 4.21794C11.0143 4.6081 11.3863 4.87834 11.8165 4.93968L15.136 5.41302C16.2163 5.56706 16.6479 6.8954 15.8645 7.65503L13.4571 9.98914C13.1452 10.2916 13.0031 10.7289 13.0777 11.1569L13.6533 14.4603C13.8406 15.5353 12.7107 16.3563 11.7461 15.8459L8.78236 14.2777C8.39829 14.0745 7.93854 14.0745 7.55446 14.2777L4.59068 15.8459C3.62613 16.3563 2.49618 15.5353 2.68351 14.4603L3.25913 11.1569C3.33373 10.7289 3.19166 10.2916 2.87969 9.98914L0.472349 7.65503C-0.311105 6.8954 0.120502 5.56706 1.20082 5.41302L4.52036 4.93968C4.95054 4.87834 5.32248 4.6081 5.51375 4.21794L6.98972 1.20714Z" fill="#FED42B"/>
</svg>
