<svg width="74" height="49" viewBox="0 0 74 49" fill="none" xmlns="http://www.w3.org/2000/svg">
<g id="&#208;&#161;&#208;&#187;&#208;&#190;&#208;&#185;_x0020_1">
<g id="_4185643008">
<path id="Vector" fill-rule="evenodd" clip-rule="evenodd" d="M46.0039 32.6997H48.2969C48.7007 32.7707 49.0539 32.9842 49.3012 33.2853V48.3402H46.0039V47.9046H46.439C47.1699 47.9046 47.712 47.6714 48.0659 47.2049C48.4195 46.7387 48.5965 46.0241 48.5965 45.0608V35.9563C48.5965 34.9855 48.4195 34.2707 48.0687 33.8083C47.718 33.3459 47.1755 33.1126 46.439 33.1126H46.0039V32.6997ZM55.2074 33.2365C58.2245 33.3539 60.6429 36.5679 60.6429 40.516C60.6429 44.4641 58.2244 47.6781 55.2074 47.7954V47.7924C57.4281 47.6357 59.2013 44.4382 59.2013 40.516C59.2013 36.5938 57.428 33.3963 55.2074 33.2395V33.2365ZM50.0927 32.6997H53.883C55.1648 32.6997 56.2812 32.91 57.2352 33.3306C58.1894 33.7547 58.9926 34.4008 59.6452 35.2722C60.2336 36.029 60.6889 36.8774 61.0081 37.8255C61.33 38.7733 61.4895 39.748 61.4895 40.7494C61.4895 41.8463 61.3154 42.863 60.9704 43.7957C60.6252 44.7283 60.138 45.5347 59.5058 46.2112C58.8737 46.8916 58.1227 47.4154 57.2584 47.786C56.3914 48.1569 55.4514 48.3402 54.4425 48.3402H50.0927V32.6998L50.0927 32.6997ZM51.1019 33.1126V47.9046H53.3987C54.0483 47.9046 54.6021 47.8548 55.0545 47.7591C55.5097 47.6638 55.9043 47.503 56.2464 47.2814C56.5856 47.0636 56.8815 46.7731 57.1367 46.4137C58.0791 45.1526 58.5488 43.2108 58.5488 40.5927C58.5488 39.7327 58.4909 38.9223 58.3751 38.158C58.259 37.3936 58.0908 36.7169 57.8675 36.1359C57.6472 35.555 57.3716 35.0429 57.0351 34.6032C56.7568 34.2439 56.4436 33.9535 56.0955 33.7357C55.7476 33.5139 55.3445 33.3534 54.8892 33.2579C54.4338 33.1622 53.886 33.1125 53.245 33.1125H51.102L51.1019 33.1126Z" fill="black"/>
<path id="Vector_2" d="M1.40078 0.369385H4.36058L17.7095 19.4718V20.6388H17.3693L4.84514 2.84056V14.76C4.84514 15.9171 4.94447 16.8438 5.14667 17.54C5.34851 18.2314 5.6747 18.7755 6.1247 19.1677C6.49324 19.4767 6.93627 19.6728 7.4643 19.7562C7.75493 19.8248 8.16937 19.8739 8.71172 19.9033V20.4328H1.14215V19.9033C1.9148 19.8444 2.54888 19.6532 3.03431 19.3345C3.5236 19.0108 3.88144 18.5353 4.11546 17.9028C4.34582 17.2752 4.46271 16.4859 4.46271 15.5493V4.20353C4.46271 3.50245 4.34924 2.90913 4.12593 2.42376C3.89931 1.93345 3.57318 1.55609 3.14423 1.29619C2.71553 1.03128 2.19815 0.899014 1.58866 0.899014H1.40078V0.369385ZM5.60365 0.369385H7.22672L17.3054 14.8139V6.16984C17.3054 5.11578 17.1743 4.19391 16.9156 3.40457C16.657 2.61503 16.2848 2.01202 15.7923 1.60497C15.5301 1.37463 15.2641 1.20793 14.9984 1.11473C14.7326 1.01678 14.3604 0.948147 13.882 0.899078V0.369449H21.0691V0.869636H15.6403L15.6412 0.87047C17.0062 1.02627 17.7842 2.31888 17.7827 4.82598C17.7338 5.27569 17.7098 5.76292 17.7094 6.28754L17.6979 17.4763L5.60346 0.369449L5.60365 0.369385Z" fill="black"/>
<path id="Vector_3" d="M38.86 0.369641H41.4106L48.2269 19.8655L47.9218 20.8156L47.5602 20.8451L41.9432 3.89995C41.2807 1.89945 40.4194 0.899335 39.3703 0.899335H38.8599V0.369706L38.86 0.369641ZM42.4709 0.369385L47.3406 0.369641V0.89927H46.3021C45.8342 0.89927 45.4624 1.03153 45.193 1.30132C44.9235 1.57091 44.7888 1.94852 44.7888 2.43396C44.7888 2.89476 44.8883 3.43889 45.0901 4.07153L49.0451 16.0791L52.3656 5.72398C52.6278 4.92957 52.7625 4.24324 52.7625 3.66948C52.7625 2.84563 52.5747 2.19361 52.2064 1.70337C51.834 1.21306 51.3201 0.94834 50.6647 0.89927V0.369641H56.5086V0.89927C55.9556 0.987467 55.4594 1.20818 55.0235 1.56604C54.5878 1.92408 54.1907 2.44364 53.8291 3.11541C53.4712 3.79206 53.1064 4.68929 52.7414 5.81218L48.6328 18.56L42.4709 0.369385Z" fill="black"/>
<path id="Vector_4" d="M31.6901 32.6998H33.4858C34.111 32.8946 34.5764 33.4424 34.639 34.1048V48.3402H31.7044L31.6901 47.9276H32.012C33.4503 47.9276 34.1695 46.9718 34.1695 45.0608V35.9563C34.1695 34.9855 33.9926 34.2707 33.6417 33.8083C33.2908 33.3459 32.7485 33.1126 32.012 33.1126H31.6901V32.6997V32.6998ZM35.4 32.6998H41.4087L41.4272 32.7189C42.6619 32.81 43.6567 33.845 43.798 35.1608L43.7989 35.1616V32.6998H44.3131V38.7504H44.0581C43.8261 37.6916 43.6174 36.9006 43.4345 36.373C43.249 35.8493 43.0111 35.3486 42.7154 34.8824C42.3587 34.3206 41.97 33.9229 41.5526 33.6822C40.8536 33.3039 40.0068 33.1127 39.0122 33.1127H36.6749V40.543H37.3042C38.2379 40.543 38.9802 40.0118 39.5283 38.953C39.8126 38.4104 40.0214 37.7606 40.1576 37.0075C40.2271 36.6865 40.288 36.2126 40.3461 35.5857H40.6419V45.8443H40.3461C40.2765 45.2941 40.1951 44.7743 40.1024 44.2851C40.0097 43.7959 39.9052 43.3984 39.7893 43.0927C39.6735 42.7867 39.5225 42.4811 39.3428 42.1752C38.8324 41.3458 38.1074 40.9331 37.1678 40.9331H36.6749V47.9277H38.6293C39.2064 47.9277 39.7255 47.8741 40.1864 47.7671C40.6504 47.6564 41.0654 47.488 41.4335 47.2626C41.8019 47.0333 42.1468 46.7389 42.4689 46.3721C43.0227 45.7529 43.4546 44.9808 43.7593 44.0558C43.936 43.5245 44.1189 42.8098 44.3129 41.9078H44.6262V48.3404H44.0323V45.8799L44.0314 45.8807C43.8901 47.1967 42.8954 48.2317 41.6606 48.3226L41.6434 48.3404H35.3998V32.7L35.4 32.6998Z" fill="black"/>
<path id="Vector_5" d="M10.9958 32.6995H13.0791L17.5736 48.2317L17.4364 48.684H17.103L13.6724 36.3041C13.3708 35.1765 13.0344 34.3623 12.6603 33.8616C12.2862 33.3608 11.831 33.1124 11.2945 33.1124H10.9958V32.6995V32.6995ZM13.8039 32.7235L17.1726 32.6995L17.1901 33.1124C16.6853 33.1199 16.3142 33.208 16.0793 33.38C15.8444 33.552 15.7284 33.8196 15.7284 34.1864C15.7284 34.5456 15.7778 34.9242 15.8821 35.3178L18.3878 44.4643L20.809 36.5257C20.6088 35.7651 20.435 35.2071 20.2843 34.8477C20.1364 34.4884 19.9449 34.1636 19.713 33.8732C19.5069 33.5904 19.298 33.3914 19.0779 33.2807C18.8605 33.1698 18.5964 33.1124 18.2862 33.1124V32.6995H20.0822L24.62 48.381L24.5296 48.6841H24.2136L20.9685 37.034L17.9439 46.9726L13.8039 32.7235ZM20.8395 32.6877L24.7238 32.6996V33.1125H24.4108C23.9004 33.1125 23.5031 33.2272 23.2218 33.4527C22.9376 33.682 22.7955 34.0108 22.7955 34.4464C22.7955 34.7368 22.836 35.0121 22.9143 35.272L25.472 44.4643L27.9776 36.044C28.1022 35.5891 28.166 35.1803 28.166 34.8133C28.166 34.2553 27.9978 33.8349 27.6674 33.5598C27.3368 33.2845 26.8264 33.1355 26.1331 33.1124L26.1188 32.6995H30.8832V33.1124C30.5672 33.143 30.3091 33.208 30.1148 33.3074C29.9204 33.4106 29.706 33.575 29.4739 33.8081C28.9984 34.2973 28.5924 35.0923 28.2588 36.1893L24.9588 47.2718L20.8395 32.6877H20.8395Z" fill="black"/>
<path id="Vector_6" fill-rule="evenodd" clip-rule="evenodd" d="M1.68404 25.0798C0.754024 25.0798 0 25.8565 0 26.8144C0 27.7723 0.754024 28.5489 1.68404 28.5489C2.5514 28.5489 3.26545 27.8735 3.35767 27.0055H30.7073C30.7635 27.7144 31.0663 28.3516 31.5265 28.8257C32.0384 29.3528 32.7457 29.6792 33.5269 29.6792C34.308 29.6792 35.0154 29.3528 35.5272 28.8257L35.5425 28.8097C35.69 29.0492 35.8624 29.2709 36.056 29.4703C36.728 30.1624 37.6567 30.5907 38.6823 30.5907C39.7076 30.5907 40.6365 30.1624 41.3085 29.4696C41.9419 28.817 42.3477 27.9293 42.3921 26.945H69.7274C69.8197 27.8131 70.5337 28.4884 71.4011 28.4884C72.3311 28.4884 73.0851 27.7119 73.0851 26.754C73.0851 25.796 72.3311 25.0195 71.4011 25.0195C70.5262 25.0195 69.8072 25.7067 69.725 26.5856H42.3921C42.3477 25.6013 41.9419 24.7136 41.3078 24.0603C40.6359 23.3684 39.7071 22.9399 38.6823 22.9399C37.6573 22.9399 36.7287 23.3684 36.056 24.0603C35.8624 24.2598 35.69 24.4814 35.5425 24.721L35.5272 24.705C35.0154 24.1779 34.308 23.8514 33.5269 23.8514C32.7457 23.8514 32.0383 24.1778 31.5265 24.705C31.0403 25.2059 30.73 25.8888 30.7003 26.646H3.36017C3.27796 25.7671 2.55894 25.0798 1.68404 25.0798ZM35.7822 28.5244C36.1421 28.0356 36.3559 27.4262 36.3559 26.7653C36.3559 26.1044 36.1422 25.495 35.7822 25.0062C35.927 24.7531 36.1022 24.5206 36.3025 24.3141C36.9113 23.6874 37.7529 23.2994 38.6824 23.2994C39.6117 23.2994 40.4535 23.6875 41.0622 24.3141C41.6707 24.9411 42.0474 25.8082 42.0474 26.7654C42.0474 27.7228 41.6707 28.5896 41.0619 29.2163C40.4531 29.8433 39.6116 30.2313 38.6824 30.2313C37.7531 30.2313 36.9117 29.8433 36.3029 29.2163C36.1026 29.01 35.927 28.7775 35.7822 28.5246V28.5244ZM35.3629 28.4825C35.1105 27.9661 34.9683 27.3828 34.9683 26.7652C34.9683 26.1479 35.1105 25.5645 35.3629 25.0479C35.3362 25.0176 35.3086 24.9879 35.2805 24.959C34.8319 24.4969 34.2116 24.2108 33.5269 24.2108C32.8422 24.2108 32.2218 24.4969 31.7733 24.959C31.3246 25.4211 31.0468 26.0601 31.0468 26.7652C31.0468 27.4704 31.3246 28.1094 31.7733 28.5714C32.2218 29.0335 32.8422 29.3197 33.5269 29.3197C34.2116 29.3197 34.8319 29.0335 35.2805 28.5714C35.3086 28.5425 35.3362 28.5129 35.3629 28.4825ZM35.6024 25.3669C35.4192 25.7946 35.3173 26.2678 35.3173 26.7653C35.3173 27.263 35.4192 27.736 35.6024 28.1637C35.8581 27.7621 36.0069 27.2815 36.0069 26.7653C36.0069 26.2491 35.8582 25.7685 35.6024 25.3669Z" fill="black"/>
<path id="Vector_7" d="M65.1544 0.661685C66.5081 0.661685 67.7485 0.96072 68.8754 1.56399C69.9988 2.16212 70.9769 3.0396 71.8063 4.19193C72.5077 5.16761 73.0464 6.25618 73.4292 7.45751C73.8084 8.65853 73.9998 9.88449 73.9998 11.1397C73.9998 13.0273 73.6135 14.7629 72.8411 16.3516C72.0719 17.9403 71.023 19.2002 69.6974 20.1269C69.5351 20.2403 69.3712 20.3469 69.2051 20.4465C71.604 18.6766 72.8004 16.173 72.7991 11.4879C72.7974 4.77146 69.2251 1.30998 65.572 1.17669C61.7465 1.03705 57.8315 4.54009 57.8332 11.4879C57.8342 16.2151 58.9304 18.5513 61.2557 20.3456C60.4745 19.8603 59.7681 19.2456 59.137 18.4941C58.329 17.5332 57.6982 16.4104 57.2446 15.1257C56.7911 13.8461 56.5642 12.5026 56.5642 11.1053C56.5642 9.24691 56.954 7.5162 57.7372 5.90294C58.5168 4.29475 59.5659 3.01997 60.8807 2.0786C62.1919 1.13237 63.6164 0.661621 65.1545 0.661621L65.1544 0.661685ZM64.6684 1.25693C61.6572 1.87392 58.9478 6.79645 58.9478 11.6067C58.9478 16.7498 61.1347 19.9828 63.5152 21.3032C64.1061 21.4469 64.7162 21.5193 65.3458 21.5193C65.9224 21.5193 66.482 21.457 67.0248 21.3326C69.433 20.0414 71.7998 16.2113 71.7998 11.2898C71.7998 6.36856 68.973 1.97508 66.1025 1.28811H66.1027C66.2407 1.3264 66.3808 1.37598 66.5223 1.43621C66.905 1.59817 67.2379 1.81382 67.5286 2.08348C68.1168 2.58841 68.62 3.275 69.0348 4.14266C69.4494 5.00571 69.7684 6.02545 69.988 7.19241C70.2112 8.3593 70.3211 9.61451 70.3211 10.9531C70.3211 13.0223 70.1193 14.807 69.7153 16.3073C69.3077 17.8125 68.7262 18.9698 67.9716 19.7786C67.2132 20.5877 66.3237 20.9898 65.2996 20.9898C64.5445 20.9898 63.8572 20.7592 63.2441 20.2984C62.6277 19.8424 62.0995 19.1757 61.6564 18.2979C61.2134 17.4203 60.8733 16.3808 60.6394 15.1698C60.4019 13.9587 60.285 12.6153 60.285 11.1395C60.285 9.96268 60.3594 8.86436 60.5081 7.84462C60.6572 6.82474 60.8769 5.90288 61.171 5.07434C61.465 4.24561 61.8195 3.52984 62.2376 2.92683C62.6168 2.37276 63.0846 1.94628 63.6409 1.64218C63.9402 1.48227 64.2484 1.36456 64.5672 1.28939C64.5958 1.27772 64.6295 1.26687 64.6683 1.2568L64.6684 1.25693Z" fill="black"/>
<path id="Vector_8" d="M30.1081 6.4143e-05C31.4618 6.4143e-05 32.7022 0.299099 33.8291 0.902236C34.9524 1.50037 35.9306 2.37797 36.76 3.53018C37.4614 4.50585 38.0001 5.59449 38.3829 6.79576C38.762 7.99684 38.9535 9.22274 38.9535 10.478C38.9535 12.3656 38.5672 14.1011 37.7947 15.6899C37.0256 17.2785 35.9767 18.5386 34.6512 19.4652C34.4888 19.5786 34.3248 19.6852 34.1587 19.7848C36.5576 18.0148 37.7541 15.5113 37.7529 10.8263C37.7511 4.10977 34.1788 0.648294 30.5256 0.514876C26.7001 0.375301 22.7851 3.87828 22.7869 10.8263C22.7879 15.5533 23.8841 17.8895 26.2094 19.684C25.4282 19.1985 24.7218 18.5838 24.0907 17.8324C23.2826 16.8714 22.6519 15.7487 22.1982 14.464C21.7448 13.1843 21.5179 11.8409 21.5179 10.4436C21.5179 8.58522 21.9077 6.85445 22.6908 5.24132C23.4704 3.63312 24.5196 2.35835 25.8344 1.41692C27.1455 0.470681 28.5701 0 30.1082 0L30.1081 6.4143e-05ZM29.6221 0.595311C26.611 1.2123 23.9015 6.1347 23.9015 10.945C23.9015 16.0882 26.0884 19.3211 28.4689 20.6415C29.0597 20.7852 29.6699 20.8576 30.2995 20.8576C30.8762 20.8576 31.4358 20.7953 31.9786 20.6709C34.3867 19.3799 36.7534 15.5497 36.7534 10.6281C36.7534 5.70693 33.9267 1.31339 31.0562 0.626485H31.0563C31.1943 0.664778 31.3345 0.714361 31.4759 0.774591C31.8586 0.936488 32.1915 1.1522 32.4822 1.42179C33.0704 1.92686 33.5736 2.61338 33.9884 3.48111C34.403 4.34415 34.722 5.3639 34.9416 6.53079C35.1648 7.69774 35.2747 8.95295 35.2747 10.2915C35.2747 12.3607 35.0729 14.1453 34.6689 15.6457C34.2613 17.1509 33.6799 18.3081 32.9252 19.1171C32.1668 19.9262 31.2774 20.3283 30.2532 20.3283C29.4982 20.3283 28.8108 20.0977 28.1977 19.6368C27.5813 19.1808 27.0531 18.5141 26.61 17.6363C26.167 16.7587 25.8269 15.7191 25.593 14.5082C25.3555 13.2971 25.2386 11.9536 25.2386 10.4779C25.2386 9.30106 25.313 8.2028 25.4618 7.18299C25.6108 6.16312 25.8305 5.24132 26.1246 4.41278C26.4186 3.58406 26.7731 2.86822 27.1912 2.26521C27.5704 1.71114 28.0382 1.28472 28.5946 0.980618C28.8938 0.820582 29.2022 0.702943 29.5208 0.627768C29.5494 0.616094 29.5832 0.605318 29.622 0.595247L29.6221 0.595311Z" fill="black"/>
</g>
</g>
</svg>
