<svg width="82" height="54" viewBox="0 0 82 54" fill="none" xmlns="http://www.w3.org/2000/svg">
<g id="&#208;&#161;&#208;&#187;&#208;&#190;&#208;&#185;_x0020_1">
<g id="_4185643008">
<path id="Vector" fill-rule="evenodd" clip-rule="evenodd" d="M50.4846 35.8849H53.0009C53.444 35.9628 53.8317 36.1971 54.1031 36.5275V53.0488H50.4846V52.5707H50.962C51.7642 52.5707 52.3591 52.3149 52.7474 51.803C53.1356 51.2913 53.3297 50.5072 53.3297 49.45V39.4587C53.3297 38.3933 53.1356 37.6089 52.7505 37.1015C52.3656 36.594 51.7703 36.338 50.962 36.338H50.4846V35.8849ZM60.5845 36.474C63.8955 36.6028 66.5495 40.1299 66.5495 44.4626C66.5495 48.7951 63.8954 52.3222 60.5845 52.451V52.4477C63.0216 52.2757 64.9674 48.7668 64.9674 44.4626C64.9674 40.1582 63.0215 36.6493 60.5845 36.4772V36.474ZM54.9717 35.8849H59.1311C60.5378 35.8849 61.7629 36.1157 62.8099 36.5772C63.857 37.0427 64.7384 37.7517 65.4546 38.7079C66.1004 39.5385 66.6 40.4695 66.9503 41.51C67.3035 42.5501 67.4785 43.6197 67.4785 44.7186C67.4785 45.9224 67.2875 47.0381 66.9089 48.0617C66.5301 49.0851 65.9954 49.97 65.3017 50.7124C64.608 51.4591 63.7838 52.0339 62.8353 52.4406C61.8839 52.8477 60.8524 53.0488 59.7452 53.0488H54.9717V35.885L54.9717 35.8849ZM56.0792 36.338V52.5707H58.5997C59.3125 52.5707 59.9203 52.5161 60.4168 52.4112C60.9163 52.3065 61.3493 52.1301 61.7248 51.8869C62.097 51.6478 62.4217 51.3291 62.7017 50.9347C63.7359 49.5507 64.2514 47.4198 64.2514 44.5467C64.2514 43.603 64.1879 42.7136 64.0608 41.8748C63.9334 41.0359 63.7488 40.2934 63.5037 39.6558C63.262 39.0183 62.9595 38.4563 62.5903 37.9737C62.2849 37.5795 61.9412 37.2608 61.5591 37.0218C61.1774 36.7784 60.735 36.6022 60.2354 36.4975C59.7356 36.3924 59.1344 36.3379 58.4311 36.3379H56.0793L56.0792 36.338Z" fill="black"/>
<path id="Vector_2" d="M1.53699 0.405396H4.78509L19.4342 21.3685V22.6491H19.0609L5.31685 3.11727V16.1977C5.31685 17.4675 5.42585 18.4844 5.64775 19.2484C5.86924 20.0073 6.22721 20.6044 6.72104 21.0347C7.12548 21.3738 7.61166 21.589 8.19112 21.6805C8.51006 21.7558 8.96487 21.8097 9.56005 21.842V22.4231H1.25317V21.842C2.10108 21.7773 2.79692 21.5675 3.32964 21.2178C3.86659 20.8626 4.25927 20.3407 4.5161 19.6466C4.76889 18.9579 4.89717 18.0917 4.89717 17.0639V4.613C4.89717 3.84363 4.77265 3.19252 4.52758 2.65987C4.27889 2.1218 3.92099 1.7077 3.45026 1.42247C2.9798 1.13176 2.41203 0.986612 1.74318 0.986612H1.53699V0.405396ZM6.14924 0.405396H7.9304L18.9908 16.2569V6.77083C18.9908 5.6141 18.8469 4.60245 18.563 3.73622C18.2792 2.86978 17.8708 2.20803 17.3303 1.76133C17.0425 1.50856 16.7506 1.32561 16.4591 1.22334C16.1674 1.11585 15.7589 1.04053 15.234 0.986682V0.405466H23.121V0.954373H17.1635L17.1645 0.955288C18.6625 1.12627 19.5163 2.54478 19.5146 5.29608C19.4609 5.78959 19.4345 6.32427 19.4341 6.9L19.4215 19.1785L6.14903 0.405466L6.14924 0.405396Z" fill="black"/>
<path id="Vector_3" d="M42.6452 0.405311H45.4441L52.9244 21.8002L52.5895 22.8427L52.1928 22.8751L46.0286 4.27948C45.3016 2.08413 44.3564 0.986598 43.2051 0.986598H42.645V0.405381L42.6452 0.405311ZM46.6078 0.405029L51.9517 0.405311V0.986527H50.8121C50.2986 0.986527 49.8906 1.13167 49.5949 1.42774C49.2992 1.72359 49.1514 2.13798 49.1514 2.6707C49.1514 3.17638 49.2605 3.77351 49.482 4.46777L53.8223 17.6449L57.4662 6.28118C57.754 5.40939 57.9018 4.65621 57.9018 4.02656C57.9018 3.12246 57.6956 2.40694 57.2915 1.86895C56.8828 1.33088 56.3188 1.04038 55.5996 0.986527V0.405311H62.0127V0.986527C61.4058 1.08331 60.8613 1.32553 60.383 1.71824C59.9048 2.11116 59.4691 2.68133 59.0723 3.41853C58.6795 4.16108 58.2791 5.14571 57.8786 6.37797L53.3699 20.3675L46.6078 0.405029Z" fill="black"/>
<path id="Vector_4" d="M34.7766 35.8846H36.7472C37.4333 36.0984 37.944 36.6996 38.0127 37.4265V53.0485H34.7923L34.7766 52.5956H35.1298C36.7082 52.5956 37.4975 51.5468 37.4975 49.4496V39.4583C37.4975 38.393 37.3033 37.6085 36.9183 37.1011C36.5332 36.5936 35.9381 36.3376 35.1298 36.3376H34.7766V35.8845V35.8846ZM38.8478 35.8846H45.4418L45.4621 35.9056C46.8171 36.0055 47.9087 37.1414 48.0638 38.5853L48.0648 38.5863V35.8846H48.6291V42.5246H48.3493C48.0946 41.3627 47.8656 40.4946 47.6649 39.9156C47.4614 39.3409 47.2003 38.7914 46.8758 38.2798C46.4843 37.6633 46.0577 37.2269 45.5997 36.9627C44.8326 36.5475 43.9034 36.3378 42.8118 36.3378H40.2469V44.4918H40.9375C41.9622 44.4918 42.7768 43.9088 43.3782 42.7469C43.6902 42.1515 43.9194 41.4384 44.0689 40.612C44.1452 40.2597 44.2119 39.7395 44.2758 39.0516H44.6003V50.3095H44.2758C44.1994 49.7056 44.11 49.1352 44.0083 48.5984C43.9065 48.0616 43.7918 47.6253 43.6647 47.2898C43.5376 46.954 43.3719 46.6186 43.1747 46.2829C42.6146 45.3728 41.819 44.9199 40.7879 44.9199H40.2469V52.5958H42.3917C43.025 52.5958 43.5946 52.537 44.1005 52.4195C44.6097 52.298 45.065 52.1133 45.4691 51.8659C45.8733 51.6143 46.2518 51.2912 46.6053 50.8887C47.213 50.2092 47.687 49.3618 48.0214 48.3467C48.2153 47.7637 48.416 46.9794 48.6289 45.9895H48.9727V53.0487H48.321V50.3485L48.32 50.3494C48.165 51.7935 47.0733 52.9294 45.7183 53.0292L45.6994 53.0487H38.8477V35.8848L38.8478 35.8846Z" fill="black"/>
<path id="Vector_5" d="M12.0671 35.8848H14.3533L19.2856 52.9298L19.1351 53.4262H18.7691L15.0044 39.8404C14.6734 38.603 14.3043 37.7095 13.8937 37.16C13.4832 36.6104 12.9836 36.3378 12.3948 36.3378H12.0671V35.8847V35.8848ZM15.1488 35.911L18.8456 35.8848L18.8647 36.3379C18.3107 36.3461 17.9035 36.4428 17.6458 36.6315C17.388 36.8203 17.2607 37.1139 17.2607 37.5164C17.2607 37.9107 17.3149 38.3261 17.4294 38.7581L20.179 48.7955L22.8361 40.0837C22.6165 39.249 22.4257 38.6366 22.2603 38.2422C22.098 37.8479 21.8879 37.4914 21.6334 37.1728C21.4072 36.8624 21.178 36.644 20.9364 36.5225C20.6978 36.4008 20.408 36.3379 20.0676 36.3379V35.8848H22.0385L27.0184 53.0937L26.9191 53.4262H26.5724L23.0111 40.6414L19.6919 51.5481L15.1488 35.911ZM22.8696 35.8718L27.1323 35.8848V36.338H26.7887C26.2286 36.338 25.7926 36.4638 25.4839 36.7113C25.1721 36.9629 25.0161 37.3237 25.0161 37.8017C25.0161 38.1205 25.0605 38.4226 25.1465 38.7078L27.9533 48.7955L30.703 39.555C30.8397 39.0558 30.9097 38.6071 30.9097 38.2044C30.9097 37.592 30.7252 37.1307 30.3625 36.8288C29.9997 36.5267 29.4396 36.3632 28.6788 36.3379L28.6631 35.8848H33.8916V36.3379C33.5448 36.3714 33.2616 36.4428 33.0483 36.5519C32.835 36.6651 32.5997 36.8455 32.345 37.1013C31.8232 37.6381 31.3776 38.5106 31.0115 39.7145L27.3901 51.8764L22.8695 35.8718H22.8696Z" fill="black"/>
<path id="Vector_6" fill-rule="evenodd" clip-rule="evenodd" d="M1.84807 27.5227C0.827469 27.5227 0 28.375 0 29.4263C0 30.4775 0.827469 31.3298 1.84807 31.3298C2.79992 31.3298 3.58351 30.5885 3.68472 29.6359H33.6983C33.7599 30.414 34.0922 31.1132 34.5973 31.6335C35.159 32.2119 35.9352 32.5701 36.7925 32.5701C37.6498 32.5701 38.426 32.212 38.9877 31.6335L39.0045 31.6159C39.1663 31.8788 39.3555 32.122 39.568 32.3409C40.3054 33.1004 41.3246 33.5704 42.4501 33.5704C43.5752 33.5704 44.5947 33.1004 45.3321 32.3401C46.0272 31.6239 46.4725 30.6498 46.5212 29.5696H76.5191C76.6203 30.5223 77.4039 31.2634 78.3558 31.2634C79.3764 31.2634 80.2038 30.4112 80.2038 29.36C80.2038 28.3087 79.3764 27.4565 78.3558 27.4565C77.3957 27.4565 76.6066 28.2107 76.5164 29.1752H46.5212C46.4725 28.095 46.0272 27.1209 45.3313 26.4039C44.5939 25.6446 43.5748 25.1744 42.4501 25.1744C41.3253 25.1744 40.3062 25.6446 39.568 26.4039C39.3555 26.6229 39.1663 26.8661 39.0045 27.129L38.9877 27.1114C38.426 26.533 37.6498 26.1747 36.7925 26.1747C35.9352 26.1747 35.1589 26.5329 34.5973 27.1114C34.0637 27.6611 33.7232 28.4105 33.6907 29.2415H3.68746C3.59725 28.277 2.80819 27.5227 1.84807 27.5227ZM39.2675 31.3029C39.6625 30.7664 39.8971 30.0976 39.8971 29.3724C39.8971 28.6472 39.6625 27.9784 39.2675 27.4419C39.4264 27.1642 39.6187 26.909 39.8385 26.6824C40.5066 25.9947 41.4302 25.5689 42.4502 25.5689C43.4701 25.5689 44.3938 25.9948 45.0618 26.6824C45.7295 27.3706 46.143 28.322 46.143 29.3725C46.143 30.4231 45.7295 31.3744 45.0615 32.0621C44.3934 32.7502 43.4699 33.176 42.4502 33.176C41.4304 33.176 40.507 32.7502 39.8389 32.0621C39.6191 31.8357 39.4264 31.5806 39.2675 31.303V31.3029ZM38.8073 31.2569C38.5304 30.6902 38.3743 30.0501 38.3743 29.3723C38.3743 28.6948 38.5304 28.0547 38.8073 27.4878C38.7781 27.4545 38.7478 27.4219 38.717 27.3901C38.2246 26.8831 37.544 26.5691 36.7925 26.5691C36.0412 26.5691 35.3603 26.8831 34.8681 27.3901C34.3758 27.8972 34.0709 28.5985 34.0709 29.3723C34.0709 30.1462 34.3758 30.8474 34.8681 31.3545C35.3603 31.8616 36.0411 32.1756 36.7925 32.1756C37.5439 32.1756 38.2246 31.8616 38.717 31.3545C38.7478 31.3227 38.7781 31.2902 38.8073 31.2569ZM39.0702 27.8377C38.8692 28.3071 38.7574 28.8265 38.7574 29.3724C38.7574 29.9186 38.8692 30.4376 39.0702 30.9071C39.3508 30.4663 39.5141 29.9389 39.5141 29.3724C39.5141 28.806 39.351 28.2785 39.0702 27.8377Z" fill="black"/>
<path id="Vector_7" d="M71.5006 0.7259C72.9862 0.7259 74.3474 1.05406 75.5841 1.71609C76.8169 2.37248 77.8903 3.33543 78.8004 4.6C79.5702 5.67071 80.1614 6.86531 80.5815 8.18366C80.9975 9.50166 81.2076 10.847 81.2076 12.2245C81.2076 14.296 80.7837 16.2006 79.936 17.9441C79.0919 19.6875 77.9409 21.0702 76.4862 22.0871C76.3081 22.2116 76.1281 22.3285 75.9459 22.4378C78.5784 20.4955 79.8914 17.7481 79.89 12.6067C79.8881 5.23598 75.9679 1.43734 71.9589 1.29107C67.7608 1.13783 63.4645 4.98208 63.4663 12.6067C63.4675 17.7943 64.6704 20.358 67.2222 22.3271C66.3649 21.7945 65.5897 21.1199 64.8972 20.2952C64.0104 19.2407 63.3182 18.0086 62.8204 16.5988C62.3227 15.1945 62.0737 13.7202 62.0737 12.1867C62.0737 10.1474 62.5015 8.24807 63.3609 6.47767C64.2165 4.71283 65.3678 3.31389 66.8107 2.28083C68.2495 1.24243 69.8128 0.72583 71.5008 0.72583L71.5006 0.7259ZM70.9673 1.37913C67.6628 2.05622 64.6895 7.45822 64.6895 12.737C64.6895 18.3811 67.0894 21.9289 69.7018 23.3779C70.3502 23.5357 71.0197 23.6152 71.7106 23.6152C72.3435 23.6152 72.9575 23.5467 73.5533 23.4102C76.196 21.9933 78.7933 17.7901 78.7933 12.3892C78.7933 6.98864 75.6912 2.16722 72.5411 1.41334H72.5413C72.6928 1.45536 72.8465 1.50977 73.0018 1.57587C73.4218 1.75361 73.7871 1.99026 74.1061 2.28618C74.7515 2.8403 75.3038 3.59376 75.7589 4.54594C76.214 5.49305 76.564 6.61212 76.805 7.89274C77.05 9.17329 77.1706 10.5508 77.1706 12.0197C77.1706 14.2905 76.9491 16.249 76.5058 17.8955C76.0585 19.5473 75.4204 20.8173 74.5922 21.7049C73.76 22.5928 72.7839 23.034 71.66 23.034C70.8314 23.034 70.077 22.781 69.4043 22.2753C68.7278 21.7749 68.1482 21.0433 67.6619 20.0799C67.1758 19.1168 66.8026 17.9761 66.5458 16.6472C66.2852 15.318 66.1569 13.8438 66.1569 12.2243C66.1569 10.9328 66.2386 9.72754 66.4018 8.60847C66.5653 7.48926 66.8065 6.4776 67.1292 5.56836C67.4519 4.65891 67.8409 3.87342 68.2998 3.21168C68.7159 2.60364 69.2293 2.13562 69.8398 1.80189C70.1681 1.62641 70.5064 1.49724 70.8562 1.41474C70.8876 1.40193 70.9247 1.39004 70.9672 1.37899L70.9673 1.37913Z" fill="black"/>
<path id="Vector_8" d="M33.0407 0.000192461C34.5263 0.000192461 35.8875 0.328354 37.1241 0.990239C38.3569 1.64663 39.4303 2.60972 40.3405 3.87415C41.1103 4.94486 41.7014 6.13953 42.1215 7.45781C42.5376 8.77588 42.7477 10.1212 42.7477 11.4987C42.7477 13.5702 42.3237 15.4748 41.476 17.2183C40.632 18.9616 39.4809 20.3444 38.0263 21.3613C37.8481 21.4857 37.6682 21.6028 37.4859 21.712C40.1184 19.7697 41.4315 17.0223 41.4301 11.8809C41.4281 4.5102 37.5079 0.711562 33.4989 0.565149C29.3008 0.411979 25.0044 4.25616 25.0064 11.8809C25.0075 17.0683 26.2104 19.6321 28.7622 21.6014C27.9049 21.0686 27.1298 20.3941 26.4372 19.5695C25.5504 18.5149 24.8583 17.2827 24.3604 15.873C23.8627 14.4687 23.6138 12.9944 23.6138 11.461C23.6138 9.42158 24.0416 7.52222 24.901 5.75196C25.7565 3.98713 26.9079 2.58818 28.3507 1.55505C29.7896 0.516649 31.3529 0.00012207 33.0408 0.00012207L33.0407 0.000192461ZM32.5073 0.653419C29.2029 1.33051 26.2295 6.73237 26.2295 12.0113C26.2295 17.6554 28.6294 21.2032 31.2418 22.6522C31.8902 22.8099 32.5598 22.8894 33.2507 22.8894C33.8836 22.8894 34.4977 22.821 35.0934 22.6845C37.736 21.2676 40.3333 17.0645 40.3333 11.6635C40.3333 6.26293 37.2313 1.44144 34.0812 0.687629H34.0813C34.2327 0.729652 34.3865 0.784064 34.5418 0.850161C34.9617 1.02783 35.3271 1.26455 35.646 1.5604C36.2915 2.11466 36.8438 2.86805 37.2989 3.8203C37.7539 4.76741 38.104 5.88648 38.345 7.16703C38.5899 8.44765 38.7106 9.82512 38.7106 11.294C38.7106 13.5648 38.4891 15.5233 38.0457 17.1698C37.5985 18.8216 36.9604 20.0915 36.1322 20.9793C35.3 21.8672 34.3238 22.3084 33.2 22.3084C32.3713 22.3084 31.617 22.0554 30.9443 21.5496C30.2678 21.0492 29.6882 20.3176 29.2019 19.3543C28.7157 18.3912 28.3425 17.2504 28.0858 15.9215C27.8252 14.5924 27.6969 13.1181 27.6969 11.4986C27.6969 10.2071 27.7786 9.0019 27.9418 7.88276C28.1053 6.76355 28.3464 5.75196 28.6692 4.84273C28.9918 3.93328 29.3808 3.14772 29.8397 2.48597C30.2559 1.87794 30.7692 1.40998 31.3797 1.07626C31.7081 0.900631 32.0465 0.771535 32.3962 0.689037C32.4276 0.676225 32.4646 0.6644 32.5072 0.653348L32.5073 0.653419Z" fill="black"/>
</g>
</g>
</svg>
